<?xml version="1.0" encoding="utf-8"?>
<!-- Generator: Adobe Illustrator 25.4.1, SVG Export Plug-In . SVG Version: 6.00 Build 0)  -->
<svg version="1.1" id="Layer_1" xmlns="http://www.w3.org/2000/svg" xmlns:xlink="http://www.w3.org/1999/xlink" x="0px" y="0px"
	 viewBox="0 0 16 16" style="enable-background:new 0 0 16 16;" xml:space="preserve">
<style type="text/css">
	.st0{fill:#FFFFFF;}
	.st1{fill:#01B241;}
	.st2{fill:#0D293B;}
</style>
<path class="st0" d="M14.32,15.69H1.66c-0.75,0-1.37-0.61-1.37-1.37V1.66c0-0.75,0.61-1.37,1.37-1.37h12.66
	c0.75,0,1.37,0.61,1.37,1.37v12.67C15.68,15.08,15.07,15.69,14.32,15.69z"/>
<g>
	<path class="st1" d="M8,14.59c-3.76,0-6.59-2.83-6.59-6.59s2.84-6.59,6.61-6.59c3.75,0,6.57,2.83,6.57,6.59S11.76,14.59,8,14.59z
		 M8,3.22C5.32,3.22,3.31,5.27,3.31,8S5.32,12.78,8,12.78s4.69-2.06,4.69-4.78S10.68,3.22,8,3.22z"/>
	<path class="st2" d="M7.96,11.21c-0.25,0-0.49-0.11-0.65-0.31L4.24,7.01l0.04-0.05c0.26-0.33,0.64-0.51,1.05-0.51
		c0.41,0,0.79,0.19,1.05,0.51l1.58,1.96l4.45-5.58c0.26-0.33,0.64-0.51,1.06-0.51c0.41,0,0.8,0.18,1.05,0.51l0.04,0.05L8.61,10.9
		C8.45,11.1,8.21,11.21,7.96,11.21z"/>
</g>
<path class="st1" d="M8,14.59c-3.76,0-6.59-2.83-6.59-6.59s2.84-6.59,6.61-6.59c3.75,0,6.57,2.83,6.57,6.59S11.76,14.59,8,14.59z
	 M8,3.22C5.32,3.22,3.31,5.27,3.31,8S5.32,12.78,8,12.78s4.69-2.06,4.69-4.78S10.68,3.22,8,3.22z"/>
<path class="st2" d="M7.96,11.21c-0.25,0-0.49-0.11-0.65-0.31L4.24,7.01l0.04-0.05c0.26-0.33,0.64-0.51,1.05-0.51
	c0.41,0,0.79,0.19,1.05,0.51l1.58,1.96l4.45-5.58c0.26-0.33,0.64-0.51,1.06-0.51c0.41,0,0.8,0.18,1.05,0.51l0.04,0.05L8.61,10.9
	C8.45,11.1,8.21,11.21,7.96,11.21z"/>
</svg>
