<svg version="1.1" id="Layer_1" xmlns="http://www.w3.org/2000/svg" x="0" y="0" viewBox="0 0 1106 149" style="enable-background:new 0 0 1106 149" xml:space="preserve"><style>.st0{fill:#0d293b}.st1{fill:#01b241}</style><path class="st0" d="M824.38 97.9c-5.87 20.22-21.09 37.06-53.66 37.06-38.64 0-58.48-27.34-58.48-60.18 0-32.51 21.52-60.74 59.5-60.74 32.86 0 48.98 18.15 52.87 37.45h-20.54c-3.94-10.5-12.02-21.12-32.7-21.12-24.67 0-37.82 19.43-37.82 43.68 0 23.84 12.63 44.63 38.12 44.63 19.29 0 27.19-8.89 32.32-20.78h20.39zM447.27 16.82h95.33v16.43h-75.34v34.23h70.59v16.59h-70.59v48.64h-19.99V16.82zM598.4 100.31l-13.47 32.4H564.2l48.86-115.89h24.85l50.98 115.89h-21.7l-14.12-32.4H598.4zm48.57-16.59c-13.12-30.32-19.35-44.98-22.05-53.15h-.16c-2.45 7.92-9.83 27.08-20.58 53.15h42.79zM892.02 33.33h-38.39V16.82h96.8v16.51H912.1v99.38h-20.07V33.33z"/><path class="st1" d="M201.18 33.33h-38.39V16.82h96.8v16.51h-38.33v99.38h-20.07V33.33z"/><path class="st0" d="M994.35 98.7c3.93 12.47 13.28 21.09 34.99 21.09 21.31 0 28.96-7.81 28.96-17.57 0-10.34-6.06-16.58-34.26-21.34-36.5-6.2-44.52-17.8-44.52-33.5 0-21.23 20.25-32.93 46.15-32.93 38.34 0 47.8 19.95 49.11 32.2h-20.16c-2.14-7.22-6.73-16.82-29.52-16.82-15.66 0-25.19 5.25-25.19 15.6 0 8.62 4.75 13.8 29.66 18.06 42.5 7.35 49.29 20.43 49.29 36.7 0 18.95-15.04 34.9-51.14 34.9-33.57 0-49.93-15.2-53.61-36.38h20.24z"/><path class="st1" d="M79.28 135.64c-34.86 0-61.14-26.29-61.14-61.14S44.5 13.36 79.45 13.36c34.76 0 60.98 26.29 60.98 61.14s-26.29 61.14-61.15 61.14zm0-105.5c-24.82 0-43.54 19.07-43.54 44.36s18.72 44.36 43.54 44.36 43.54-19.07 43.54-44.36-18.72-44.36-43.54-44.36zM345.01 135.64c-34.86 0-61.14-26.29-61.14-61.14s26.36-61.14 61.31-61.14c34.76 0 60.98 26.29 60.98 61.14s-26.29 61.14-61.15 61.14zm0-105.5c-24.82 0-43.54 19.07-43.54 44.36s18.72 44.36 43.54 44.36 43.54-19.07 43.54-44.36-18.72-44.36-43.54-44.36z"/><path class="st0" d="M344.66 105.89c-2.35 0-4.53-1.06-5.99-2.91l-28.51-36.13.37-.48c2.37-3.02 5.92-4.75 9.74-4.75 3.81 0 7.35 1.72 9.72 4.72l14.66 18.17 41.3-51.78c2.39-3.03 5.97-4.76 9.82-4.76 3.82 0 7.38 1.71 9.78 4.7l.38.48-55.28 69.84a7.576 7.576 0 0 1-5.99 2.9z"/></svg>